<svg width="32" height="32" viewBox="0 0 32 32" fill="none" xmlns="http://www.w3.org/2000/svg">
<rect x="5" y="5" width="22" height="22" rx="6" fill="black"/>
<g clip-path="url(#clip0_363_789)">
<path d="M19.75 8.5H12.25C10.1789 8.5 8.5 10.1789 8.5 12.25V19.75C8.5 21.8211 10.1789 23.5 12.25 23.5H19.75C21.8211 23.5 23.5 21.8211 23.5 19.75V12.25C23.5 10.1789 21.8211 8.5 19.75 8.5Z" stroke="white" stroke-width="2" stroke-linecap="round" stroke-linejoin="round"/>
<path d="M19 15.5275C19.0926 16.1517 18.986 16.7891 18.6953 17.3492C18.4047 17.9093 17.9449 18.3635 17.3812 18.6472C16.8176 18.9309 16.1789 19.0297 15.5559 18.9294C14.9329 18.8292 14.3573 18.535 13.9112 18.0889C13.465 17.6427 13.1708 17.0671 13.0706 16.4441C12.9703 15.8211 13.0691 15.1824 13.3528 14.6188C13.6365 14.0551 14.0907 13.5953 14.6508 13.3047C15.2109 13.014 15.8483 12.9074 16.4725 13C17.1092 13.0944 17.6987 13.3911 18.1538 13.8462C18.6089 14.3013 18.9056 14.8908 19 15.5275Z" stroke="white" stroke-width="2" stroke-linecap="round" stroke-linejoin="round"/>
<path d="M20.125 11.875H20.1317" stroke="white" stroke-width="2" stroke-linecap="round" stroke-linejoin="round"/>
</g>
<defs>
<clipPath id="clip0_363_789">
<rect width="18" height="18" fill="white" transform="translate(7 7)"/>
</clipPath>
</defs>
</svg>
